<svg width="26" height="28" viewBox="0 0 26 28" fill="none" xmlns="http://www.w3.org/2000/svg">
<path d="M15.0809 13.9981L25.6277 1.42624C25.8045 1.21731 25.6559 0.899902 25.3827 0.899902H22.1764C21.9876 0.899902 21.8068 0.984277 21.6822 1.12892L12.9836 11.499L4.28489 1.12892C4.16436 0.984277 3.98355 0.899902 3.7907 0.899902H0.584446C0.311232 0.899902 0.162571 1.21731 0.339356 1.42624L10.8862 13.9981L0.339356 26.57C0.299755 26.6166 0.274349 26.6735 0.266154 26.7341C0.257959 26.7947 0.267319 26.8563 0.293124 26.9118C0.31893 26.9672 0.360096 27.014 0.411734 27.0467C0.463373 27.0795 0.523316 27.0967 0.584446 27.0963H3.7907C3.97953 27.0963 4.16034 27.012 4.28489 26.8673L12.9836 16.4972L21.6822 26.8673C21.8027 27.012 21.9836 27.0963 22.1764 27.0963H25.3827C25.6559 27.0963 25.8045 26.7789 25.6277 26.57L15.0809 13.9981Z" fill="black" fill-opacity="0.85"/>
</svg>
