<svg width="48" height="48" viewBox="0 0 48 48" fill="none" xmlns="http://www.w3.org/2000/svg">
<rect width="48" height="48" rx="6" fill="#8787F8"/>
<g clip-path="url(#clip0_4592_63699)">
<path d="M34.2855 9.6001H13.7141C13.1452 9.6001 12.6855 10.0597 12.6855 10.6287V37.3715C12.6855 37.9405 13.1452 38.4001 13.7141 38.4001H34.2855C34.8545 38.4001 35.3141 37.9405 35.3141 37.3715V10.6287C35.3141 10.0597 34.8545 9.6001 34.2855 9.6001ZM14.9998 11.9144H32.9998V18.6001H14.9998V11.9144ZM32.9998 27.343H14.9998V20.6572H32.9998V27.343ZM32.9998 36.0858H14.9998V29.4001H32.9998V36.0858ZM17.3141 15.2572C17.3141 15.5982 17.4496 15.9253 17.6907 16.1664C17.9318 16.4075 18.2588 16.543 18.5998 16.543C18.9408 16.543 19.2679 16.4075 19.509 16.1664C19.7501 15.9253 19.8855 15.5982 19.8855 15.2572C19.8855 14.9162 19.7501 14.5892 19.509 14.3481C19.2679 14.107 18.9408 13.9715 18.5998 13.9715C18.2588 13.9715 17.9318 14.107 17.6907 14.3481C17.4496 14.5892 17.3141 14.9162 17.3141 15.2572ZM17.3141 24.0001C17.3141 24.3411 17.4496 24.6681 17.6907 24.9092C17.9318 25.1504 18.2588 25.2858 18.5998 25.2858C18.9408 25.2858 19.2679 25.1504 19.509 24.9092C19.7501 24.6681 19.8855 24.3411 19.8855 24.0001C19.8855 23.6591 19.7501 23.3321 19.509 23.091C19.2679 22.8498 18.9408 22.7144 18.5998 22.7144C18.2588 22.7144 17.9318 22.8498 17.6907 23.091C17.4496 23.3321 17.3141 23.6591 17.3141 24.0001ZM17.3141 32.743C17.3141 33.0839 17.4496 33.411 17.6907 33.6521C17.9318 33.8932 18.2588 34.0287 18.5998 34.0287C18.9408 34.0287 19.2679 33.8932 19.509 33.6521C19.7501 33.411 19.8855 33.0839 19.8855 32.743C19.8855 32.402 19.7501 32.0749 19.509 31.8338C19.2679 31.5927 18.9408 31.4572 18.5998 31.4572C18.2588 31.4572 17.9318 31.5927 17.6907 31.8338C17.4496 32.0749 17.3141 32.402 17.3141 32.743Z" fill="white"/>
</g>
<defs>
<clipPath id="clip0_4592_63699">
<rect width="28.8" height="28.8" fill="white" transform="translate(9.59961 9.6001)"/>
</clipPath>
</defs>
</svg>
