<svg width="14" height="22" viewBox="0 0 14 22" fill="none" xmlns="http://www.w3.org/2000/svg">
<path d="M0.321247 3.13242V1.06189C0.321247 0.882423 0.527497 0.783316 0.666783 0.893137L12.7418 10.3244C12.8444 10.4042 12.9274 10.5063 12.9845 10.6231C13.0416 10.7398 13.0713 10.8681 13.0713 10.998C13.0713 11.128 13.0416 11.2563 12.9845 11.373C12.9274 11.4898 12.8444 11.5919 12.7418 11.6717L0.666783 21.103C0.524819 21.2128 0.321247 21.1137 0.321247 20.9342V18.8637C0.321247 18.7324 0.382854 18.6065 0.484639 18.5262L10.1275 10.9994L0.484639 3.46992C0.382854 3.38957 0.321247 3.26367 0.321247 3.13242Z" fill="#333333"/>
</svg>
