<svg width="48" height="48" viewBox="0 0 48 48" fill="none" xmlns="http://www.w3.org/2000/svg">
<rect width="48" height="48" rx="6" fill="#8787F8"/>
<g clip-path="url(#clip0_2934_39077)">
<path d="M31.4558 9.52979H16.5415C15.4069 9.52979 14.4844 10.4523 14.4844 11.5869V36.2726C14.4844 37.4073 15.4069 38.3298 16.5415 38.3298H31.4558C32.5904 38.3298 33.5129 37.4073 33.5129 36.2726V11.5869C33.5129 10.4523 32.5904 9.52979 31.4558 9.52979ZM31.1987 36.0155H16.7987V11.8441H31.1987V36.0155ZM22.7129 32.7369C22.7129 33.0779 22.8484 33.4049 23.0895 33.6461C23.3306 33.8872 23.6577 34.0226 23.9987 34.0226C24.3397 34.0226 24.6667 33.8872 24.9078 33.6461C25.1489 33.4049 25.2844 33.0779 25.2844 32.7369C25.2844 32.3959 25.1489 32.0689 24.9078 31.8278C24.6667 31.5867 24.3397 31.4512 23.9987 31.4512C23.6577 31.4512 23.3306 31.5867 23.0895 31.8278C22.8484 32.0689 22.7129 32.3959 22.7129 32.7369Z" fill="white"/>
</g>
<defs>
<clipPath id="clip0_2934_39077">
<rect width="28.8" height="28.8" fill="white" transform="translate(9.59961 9.6001)"/>
</clipPath>
</defs>
</svg>
