<svg width="10" height="15" viewBox="0 0 10 15" fill="none" xmlns="http://www.w3.org/2000/svg">
<path d="M8.625 0.46582H1.375C0.823438 0.46582 0.375 0.914258 0.375 1.46582V13.4658C0.375 14.0174 0.823438 14.4658 1.375 14.4658H8.625C9.17656 14.4658 9.625 14.0174 9.625 13.4658V1.46582C9.625 0.914258 9.17656 0.46582 8.625 0.46582ZM8.5 13.3408H1.5V1.59082H8.5V13.3408ZM4.375 11.7471C4.375 11.9128 4.44085 12.0718 4.55806 12.189C4.67527 12.3062 4.83424 12.3721 5 12.3721C5.16576 12.3721 5.32473 12.3062 5.44194 12.189C5.55915 12.0718 5.625 11.9128 5.625 11.7471C5.625 11.5813 5.55915 11.4223 5.44194 11.3051C5.32473 11.1879 5.16576 11.1221 5 11.1221C4.83424 11.1221 4.67527 11.1879 4.55806 11.3051C4.44085 11.4223 4.375 11.5813 4.375 11.7471Z" fill="#666666"/>
</svg>
