<svg width="14" height="15" viewBox="0 0 14 15" fill="none" xmlns="http://www.w3.org/2000/svg">
<path d="M12.35 12.0141C12.3531 12.0094 12.3578 12.0047 12.3609 12C13.3844 10.7828 14 9.21406 14 7.5C14 5.78594 13.3844 4.21719 12.3625 3C12.3594 2.99531 12.3547 2.99219 12.3516 2.9875C12.3344 2.96719 12.3187 2.94844 12.3016 2.92969C12.2953 2.92188 12.2891 2.91563 12.2828 2.90781L12.2188 2.83437L12.2172 2.83281C12.1938 2.80625 12.1687 2.77969 12.1453 2.75312L12.1438 2.75156C12.0938 2.69844 12.0437 2.64531 11.9922 2.59375L11.9906 2.59219L11.9156 2.51719L11.9109 2.5125C11.8875 2.48906 11.8641 2.46719 11.8406 2.44531C11.8328 2.4375 11.825 2.42969 11.8156 2.42188C11.8 2.40625 11.7844 2.39219 11.7688 2.37812C11.7641 2.37344 11.7578 2.36875 11.7531 2.3625C10.5063 1.20625 8.83594 0.5 7 0.5C5.16406 0.5 3.49375 1.20625 2.24531 2.3625C2.24062 2.36719 2.23438 2.37187 2.22969 2.37812C2.21406 2.39219 2.19844 2.40781 2.18281 2.42344C2.175 2.43125 2.16719 2.43906 2.15781 2.44688C2.13438 2.46875 2.11094 2.49219 2.0875 2.51406L2.08281 2.51875L2.00781 2.59375L2.00625 2.59531C1.95469 2.64688 1.90469 2.7 1.85469 2.75312L1.85313 2.75469C1.82813 2.78125 1.80469 2.80781 1.78125 2.83437L1.77969 2.83594C1.75781 2.85938 1.73594 2.88437 1.71563 2.90937C1.70938 2.91719 1.70313 2.92344 1.69688 2.93125C1.67969 2.95 1.66406 2.97031 1.64687 2.98906C1.64375 2.99375 1.63906 2.99688 1.63594 3.00156C0.615625 4.21719 0 5.78594 0 7.5C0 9.21406 0.615625 10.7828 1.6375 12C1.64062 12.0047 1.64531 12.0094 1.64844 12.0141L1.69688 12.0719C1.70313 12.0797 1.70938 12.0859 1.71563 12.0938L1.77969 12.1672C1.77969 12.1687 1.78125 12.1688 1.78125 12.1703C1.80469 12.1969 1.82813 12.2234 1.85313 12.2484L1.85469 12.25C1.90469 12.3031 1.95469 12.3562 2.00469 12.4078L2.00625 12.4094C2.03125 12.4344 2.05469 12.4594 2.07969 12.4828L2.08437 12.4875C2.13594 12.5391 2.18906 12.5891 2.24219 12.6375C3.49375 13.7937 5.16406 14.5 7 14.5C8.83594 14.5 10.5062 13.7937 11.7547 12.6375C11.8079 12.5887 11.86 12.5387 11.9109 12.4875L11.9156 12.4828C11.9406 12.4578 11.9656 12.4344 11.9891 12.4094L11.9906 12.4078C12.0422 12.3562 12.0922 12.3031 12.1406 12.25L12.1422 12.2484C12.1656 12.2219 12.1906 12.1969 12.2141 12.1703C12.2141 12.1688 12.2156 12.1687 12.2156 12.1672C12.2375 12.1438 12.2594 12.1187 12.2797 12.0938C12.2859 12.0859 12.2922 12.0797 12.2984 12.0719C12.3161 12.053 12.3333 12.0338 12.35 12.0141ZM12.4141 9.78594C12.1984 10.2953 11.9141 10.7672 11.5672 11.1953C11.1765 10.8577 10.7494 10.5647 10.2937 10.3219C10.475 9.58906 10.5875 8.78438 10.6172 7.9375H12.8594C12.8125 8.57656 12.6625 9.19687 12.4141 9.78594ZM12.8594 7.0625H10.6172C10.5875 6.21562 10.475 5.41094 10.2937 4.67812C10.7516 4.43437 11.1781 4.14062 11.5672 3.80469C12.3212 4.73277 12.7722 5.8699 12.8594 7.0625ZM9.28594 2.08594C9.90625 2.34844 10.4703 2.71094 10.9672 3.16719C10.6785 3.41296 10.3679 3.63159 10.0391 3.82031C9.79375 3.11719 9.47969 2.50625 9.11406 2.01719C9.17188 2.03906 9.22969 2.0625 9.28594 2.08594ZM7.87031 13.0328C7.72656 13.1453 7.58281 13.2312 7.4375 13.2891V10.3906C8.05749 10.4339 8.66717 10.5719 9.24531 10.8C9.11563 11.1844 8.96562 11.5391 8.79219 11.8594C8.52031 12.3656 8.20156 12.7703 7.87031 13.0328ZM8.79219 3.14062C8.96406 3.4625 9.11563 3.81719 9.24531 4.2C8.66717 4.42806 8.05749 4.56612 7.4375 4.60938V1.7125C7.58125 1.77031 7.72656 1.85469 7.87031 1.96875C8.20156 2.22969 8.52031 2.63438 8.79219 3.14062ZM7.4375 9.51406V7.9375H9.74219C9.71719 8.62813 9.63125 9.29844 9.4875 9.93437L9.48281 9.95312C8.82708 9.70447 8.13751 9.55644 7.4375 9.51406ZM7.4375 7.0625V5.48594C8.15312 5.44219 8.84063 5.29063 9.48281 5.04688L9.4875 5.06563C9.63125 5.70156 9.71719 6.37031 9.74219 7.0625H7.4375ZM6.5625 7.9375V9.51406C5.84688 9.55781 5.15938 9.70938 4.51719 9.95312L4.5125 9.93437C4.36875 9.29844 4.28281 8.62969 4.25781 7.9375H6.5625ZM4.25781 7.0625C4.28281 6.37187 4.36875 5.70156 4.5125 5.06563L4.51719 5.04688C5.15938 5.29063 5.84531 5.44219 6.5625 5.48594V7.0625H4.25781ZM6.5625 10.3906V13.2875C6.41875 13.2297 6.27344 13.1453 6.12969 13.0312C5.79844 12.7703 5.47813 12.3641 5.20625 11.8578C5.03438 11.5359 4.88281 11.1812 4.75313 10.7984C5.33438 10.5703 5.93906 10.4344 6.5625 10.3906ZM6.5625 4.60938C5.94251 4.56612 5.33283 4.42806 4.75469 4.2C4.88437 3.81562 5.03437 3.46094 5.20781 3.14062C5.47969 2.63438 5.79844 2.22812 6.13125 1.96719C6.275 1.85469 6.41875 1.76875 6.56406 1.71094V4.60938H6.5625ZM4.71406 2.08594C4.77188 2.0625 4.82812 2.03906 4.88594 2.01719C4.52031 2.50625 4.20625 3.11719 3.96094 3.82031C3.63281 3.63281 3.32188 3.41406 3.03281 3.16719C3.52969 2.71094 4.09375 2.34844 4.71406 2.08594ZM1.58594 5.21406C1.80156 4.70469 2.08594 4.23281 2.43281 3.80469C2.82187 4.14062 3.24844 4.43437 3.70625 4.67812C3.525 5.41094 3.4125 6.21562 3.38281 7.0625H1.14062C1.1875 6.42344 1.3375 5.80313 1.58594 5.21406ZM1.14062 7.9375H3.38281C3.4125 8.78438 3.525 9.58906 3.70625 10.3219C3.25059 10.5647 2.82347 10.8577 2.43281 11.1953C1.6788 10.2672 1.22776 9.1301 1.14062 7.9375ZM4.71406 12.9141C4.09375 12.6516 3.52969 12.2891 3.03281 11.8328C3.32188 11.5859 3.63281 11.3687 3.96094 11.1797C4.20625 11.8828 4.52031 12.4938 4.88594 12.9828C4.82812 12.9609 4.77031 12.9375 4.71406 12.9141ZM9.28594 12.9141C9.22812 12.9375 9.17188 12.9609 9.11406 12.9828C9.47969 12.4938 9.79375 11.8828 10.0391 11.1797C10.3672 11.3672 10.6781 11.5859 10.9672 11.8328C10.4731 12.2872 9.90432 12.6529 9.28594 12.9141Z" fill="#333333"/>
</svg>
