<svg width="48" height="48" viewBox="0 0 48 48" fill="none" xmlns="http://www.w3.org/2000/svg">
<rect width="48" height="48" rx="6" fill="#8787F8"/>
<g clip-path="url(#clip0_2934_39089)">
<path d="M35.0053 33.2862C35.0118 33.2765 35.0214 33.2669 35.0278 33.2572C37.1332 30.7533 38.3996 27.5262 38.3996 24.0001C38.3996 20.474 37.1332 17.2469 35.031 14.743C35.0246 14.7333 35.015 14.7269 35.0085 14.7172C34.9732 14.6755 34.941 14.6369 34.9057 14.5983C34.8928 14.5822 34.88 14.5694 34.8671 14.5533L34.7353 14.4022L34.7321 14.399C34.6839 14.3444 34.6325 14.2897 34.5842 14.2351L34.581 14.2319C34.4782 14.1226 34.3753 14.0133 34.2693 13.9072L34.266 13.904L34.1117 13.7497L34.1021 13.7401C34.0539 13.6919 34.0057 13.6469 33.9575 13.6019C33.9414 13.5858 33.9253 13.5697 33.906 13.5537C33.8739 13.5215 33.8418 13.4926 33.8096 13.4637C33.8 13.454 33.7871 13.4444 33.7775 13.4315C31.2125 11.053 27.7764 9.6001 23.9996 9.6001C20.2228 9.6001 16.7868 11.053 14.2185 13.4315C14.2089 13.4412 14.196 13.4508 14.1864 13.4637C14.1543 13.4926 14.1221 13.5247 14.09 13.5569C14.0739 13.573 14.0578 13.589 14.0385 13.6051C13.9903 13.6501 13.9421 13.6983 13.8939 13.7433L13.8843 13.753L13.73 13.9072L13.7268 13.9105C13.6207 14.0165 13.5178 14.1258 13.415 14.2351L13.4118 14.2383C13.3603 14.293 13.3121 14.3476 13.2639 14.4022L13.2607 14.4055C13.2157 14.4537 13.1707 14.5051 13.1289 14.5565C13.116 14.5726 13.1032 14.5855 13.0903 14.6015C13.055 14.6401 13.0228 14.6819 12.9875 14.7205C12.981 14.7301 12.9714 14.7365 12.965 14.7462C10.866 17.2469 9.59961 20.474 9.59961 24.0001C9.59961 27.5262 10.866 30.7533 12.9682 33.2572C12.9746 33.2669 12.9843 33.2765 12.9907 33.2862L13.0903 33.4051C13.1032 33.4212 13.116 33.434 13.1289 33.4501L13.2607 33.6012C13.2607 33.6044 13.2639 33.6044 13.2639 33.6076C13.3121 33.6622 13.3603 33.7169 13.4118 33.7683L13.415 33.7715C13.5178 33.8808 13.6207 33.9901 13.7235 34.0962L13.7268 34.0994C13.7782 34.1508 13.8264 34.2022 13.8778 34.2505L13.8875 34.2601C13.9935 34.3662 14.1028 34.469 14.2121 34.5687C16.7868 36.9472 20.2228 38.4001 23.9996 38.4001C27.7764 38.4001 31.2125 36.9472 33.7807 34.5687C33.8902 34.4683 33.9974 34.3654 34.1021 34.2601L34.1117 34.2505C34.1632 34.199 34.2146 34.1508 34.2628 34.0994L34.266 34.0962C34.3721 33.9901 34.475 33.8808 34.5746 33.7715L34.5778 33.7683C34.626 33.7137 34.6775 33.6622 34.7257 33.6076C34.7257 33.6044 34.7289 33.6044 34.7289 33.6012C34.7739 33.553 34.8189 33.5015 34.8607 33.4501C34.8735 33.434 34.8864 33.4212 34.8993 33.4051C34.9356 33.3663 34.971 33.3267 35.0053 33.2862ZM35.1371 28.7026C34.6935 29.7505 34.1085 30.7212 33.395 31.6019C32.5913 30.9073 31.7127 30.3047 30.7753 29.8051C31.1482 28.2976 31.3796 26.6422 31.4407 24.9001H36.0532C35.9568 26.2147 35.6482 27.4908 35.1371 28.7026ZM36.0532 23.1001H31.4407C31.3796 21.358 31.1482 19.7026 30.7753 18.1951C31.7171 17.6937 32.5946 17.0894 33.395 16.3983C34.9461 18.3075 35.8739 20.6468 36.0532 23.1001ZM28.7021 12.8626C29.9782 13.4026 31.1385 14.1483 32.1607 15.0869C31.5669 15.5925 30.9278 16.0422 30.2514 16.4305C29.7468 14.984 29.1007 13.7272 28.3485 12.7212C28.4675 12.7662 28.5864 12.8144 28.7021 12.8626ZM25.79 35.3819C25.4943 35.6133 25.1985 35.7901 24.8996 35.909V29.9465C26.175 30.0355 27.4292 30.3195 28.6185 30.7887C28.3518 31.5794 28.0432 32.309 27.6864 32.968C27.1271 34.0094 26.4714 34.8419 25.79 35.3819ZM27.6864 15.0322C28.04 15.6944 28.3518 16.424 28.6185 17.2115C27.4292 17.6807 26.175 17.9647 24.8996 18.0537V12.0944C25.1953 12.2133 25.4943 12.3869 25.79 12.6215C26.4714 13.1583 27.1271 13.9908 27.6864 15.0322ZM24.8996 28.1433V24.9001H29.6407C29.5893 26.3208 29.4125 27.6997 29.1168 29.008L29.1071 29.0465C27.7582 28.535 26.3396 28.2305 24.8996 28.1433ZM24.8996 23.1001V19.8569C26.3718 19.7669 27.786 19.4551 29.1071 18.9537L29.1168 18.9922C29.4125 20.3005 29.5893 21.6762 29.6407 23.1001H24.8996ZM23.0996 24.9001V28.1433C21.6275 28.2333 20.2132 28.5451 18.8921 29.0465L18.8825 29.008C18.5868 27.6997 18.41 26.324 18.3585 24.9001H23.0996ZM18.3585 23.1001C18.41 21.6794 18.5868 20.3005 18.8825 18.9922L18.8921 18.9537C20.2132 19.4551 21.6243 19.7669 23.0996 19.8569V23.1001H18.3585ZM23.0996 29.9465V35.9058C22.8039 35.7869 22.505 35.6133 22.2093 35.3787C21.5278 34.8419 20.8689 34.0062 20.3096 32.9647C19.956 32.3026 19.6443 31.573 19.3775 30.7855C20.5732 30.3162 21.8171 30.0365 23.0996 29.9465ZM23.0996 18.0537C21.8242 17.9647 20.57 17.6807 19.3807 17.2115C19.6475 16.4208 19.956 15.6912 20.3128 15.0322C20.8721 13.9908 21.5278 13.1551 22.2125 12.6183C22.5082 12.3869 22.8039 12.2101 23.1028 12.0912V18.0537H23.0996ZM19.2971 12.8626C19.416 12.8144 19.5318 12.7662 19.6507 12.7212C18.8985 13.7272 18.2525 14.984 17.7478 16.4305C17.0728 16.0447 16.4332 15.5947 15.8385 15.0869C16.8607 14.1483 18.021 13.4026 19.2971 12.8626ZM12.8621 19.2976C13.3057 18.2497 13.8907 17.279 14.6043 16.3983C15.4046 17.0894 16.2821 17.6937 17.2239 18.1951C16.851 19.7026 16.6196 21.358 16.5585 23.1001H11.946C12.0425 21.7855 12.351 20.5094 12.8621 19.2976ZM11.946 24.9001H16.5585C16.6196 26.6422 16.851 28.2976 17.2239 29.8051C16.2865 30.3047 15.4079 30.9073 14.6043 31.6019C13.0531 29.6927 12.1253 27.3534 11.946 24.9001ZM19.2971 35.1376C18.021 34.5976 16.8607 33.8519 15.8385 32.9133C16.4332 32.4055 17.0728 31.9587 17.7478 31.5697C18.2525 33.0162 18.8985 34.273 19.6507 35.279C19.5318 35.234 19.4128 35.1858 19.2971 35.1376ZM28.7021 35.1376C28.5832 35.1858 28.4675 35.234 28.3485 35.279C29.1007 34.273 29.7468 33.0162 30.2514 31.5697C30.9264 31.9555 31.566 32.4055 32.1607 32.9133C31.1442 33.848 29.9742 34.6004 28.7021 35.1376Z" fill="white"/>
</g>
<defs>
<clipPath id="clip0_2934_39089">
<rect width="28.8" height="28.8" fill="white" transform="translate(9.59961 9.6001)"/>
</clipPath>
</defs>
</svg>
